<?xml version="1.0" standalone="no"?>
<!DOCTYPE svg PUBLIC "-//W3C//DTD SVG 20010904//EN"
 "http://www.w3.org/TR/2001/REC-SVG-20010904/DTD/svg10.dtd">
<svg version="1.0" xmlns="http://www.w3.org/2000/svg"
 width="700.000000pt" height="700.000000pt" viewBox="0 0 700.000000 700.000000"
 preserveAspectRatio="xMidYMid meet">
<metadata>
Created by potrace 1.14, written by Peter Selinger 2001-2017
</metadata>
<g transform="translate(0.000000,700.000000) scale(0.100000,-0.100000)"
fill="#000000" stroke="none">
<path d="M3215 6994 c-527 -52 -991 -193 -1418 -433 -575 -321 -1037 -783
-1359 -1358 -213 -382 -345 -781 -415 -1258 -14 -95 -18 -187 -18 -445 0 -348
7 -419 61 -695 198 -995 833 -1864 1731 -2366 381 -214 782 -346 1258 -416
152 -22 706 -25 855 -5 691 95 1270 339 1784 752 639 514 1087 1249 1240 2038
55 283 61 346 61 692 0 346 -6 409 -61 692 -148 762 -575 1482 -1179 1989
-517 433 -1119 699 -1800 795 -114 16 -633 28 -740 18z m504 -2184 c260 -63
497 -255 610 -494 70 -148 97 -288 88 -460 -15 -293 -130 -513 -451 -866 -53
-58 -96 -107 -95 -110 0 -12 97 -75 167 -108 64 -31 89 -37 161 -40 150 -7
268 49 427 201 103 98 206 228 299 377 84 135 249 465 330 664 78 188 111 236
189 272 149 69 328 -10 373 -165 22 -78 13 -130 -53 -289 -341 -821 -704
-1307 -1128 -1508 -127 -60 -226 -85 -368 -91 -267 -13 -484 66 -740 269 l-26
21 -86 -65 c-154 -115 -326 -192 -490 -219 -104 -16 -289 -7 -391 21 -300 81
-597 328 -852 710 -162 242 -329 571 -474 930 -42 105 -47 200 -12 265 46 88
154 156 247 155 44 -1 128 -32 163 -60 48 -39 67 -74 138 -245 179 -435 387
-789 585 -998 95 -101 176 -162 276 -209 64 -31 76 -33 174 -33 101 0 108 2
184 38 43 20 97 51 120 69 22 18 43 33 45 35 5 3 -28 41 -155 185 -220 248
-309 397 -365 615 -32 123 -33 350 -1 468 45 166 136 319 258 436 86 81 143
120 247 169 190 89 400 109 606 60z"/>
<path d="M3410 4286 c-178 -49 -290 -197 -290 -382 0 -151 91 -312 310 -544
l70 -75 71 75 c121 127 207 241 256 339 l48 93 0 112 c0 99 -3 117 -27 168
-79 169 -268 261 -438 214z"/>
</g>
</svg>
