<svg id="Group_1769" data-name="Group 1769" xmlns="http://www.w3.org/2000/svg" xmlns:xlink="http://www.w3.org/1999/xlink" width="323.698" height="202.211" viewBox="0 0 323.698 202.211">
  <defs>
    <clipPath id="clip-path">
      <rect id="Rectangle_1720" data-name="Rectangle 1720" width="323.698" height="202.211" fill="none"/>
    </clipPath>
  </defs>
  <g id="Group_1768" data-name="Group 1768" clip-path="url(#clip-path)">
    <path id="Path_4281" data-name="Path 4281" d="M45.122,202.211A45.087,45.087,0,0,1,0,157.128V45.086a45.056,45.056,0,0,1,47.831-45C96.419,3.147,129.739,12.2,146.866,26.982c21.226,18.324,21.226,35.247,21.226,40.808,0,14.11-7.34,26.674-13.826,33.4,6.486,6.727,13.826,19.291,13.826,33.4,0,5.561,0,22.484-21.226,40.808-11.34,9.79-37.648,22.371-98.58,26.7-1.056.075-2.113.113-3.165.113M44.971,25.092A19.971,19.971,0,0,0,25.1,45.086V157.128a19.993,19.993,0,0,0,21.414,19.939c40.956-2.908,72.343-10.633,83.959-20.661C143,145.589,143,137.883,143,134.592c0-6.339-4.064-13.254-6.949-16.14l-.237-.236-7.5,6.844c-10.585,9.472-22.416,18.72-40.279,18.72a42.716,42.716,0,0,1-42.673-42.335c0-.059,0-.119,0-.178,0-.025,0-.051,0-.075s0-.05,0-.075c0-.059,0-.12,0-.179A42.716,42.716,0,0,1,88.032,58.6c17.862,0,29.693,9.248,40.279,18.719l.093.083,7.407,6.761.236-.236c2.886-2.886,6.95-9.8,6.95-16.14,0-3.291,0-11-12.529-21.813C118.127,35.322,87.432,27.725,46.254,25.132q-.644-.04-1.284-.04m25.482,76.1a17.594,17.594,0,0,0,17.58,17.495c8.295,0,14.194-3.963,23.5-12.288l5.7-5.207-5.705-5.207C102.225,87.66,96.326,83.7,88.032,83.7a17.594,17.594,0,0,0-17.58,17.494" transform="translate(0 0)" fill="#fff"/>
    <path id="Path_4282" data-name="Path 4282" d="M314.7,200.022a67.568,67.568,0,0,1-67.491-67.491,12.965,12.965,0,0,1,25.93,0,41.561,41.561,0,0,0,83.122,0c0-18.645-6.1-29.868-20.395-37.525-5.211-2.793-20.242-2.15-31.218-1.681-20.28.866-39.44,1.685-50.707-9.111a25.317,25.317,0,0,1-7.683-18.783c0-1.33.008-3.164.016-5.307.03-7.5.082-20.049-.166-26.243a28.079,28.079,0,0,1,8.138-20.3,30.4,30.4,0,0,1,21.762-9.406c9.646,0,83.491.852,86.629.888a12.965,12.965,0,0,1-.3,25.929c-.768-.008-76.832-.887-86.329-.887a4.671,4.671,0,0,0-3.985,2.873c.265,6.794.215,19.092.181,27.248-.008,2.1-.016,3.9-.016,5.2,0,.1,0,.189.007.265.782.443,3.157,1.452,9.108,1.909,6.4.49,14.451.147,22.238-.186,17.021-.728,33.1-1.415,44.569,4.729,22.615,12.115,34.08,32.431,34.08,60.383A67.568,67.568,0,0,1,314.7,200.022M272.014,33.036Z" transform="translate(-58.495 -0.993)" fill="#fff"/>
  </g>
</svg>
