<svg xmlns="http://www.w3.org/2000/svg" width="273.452" height="174.5" xmlns:v="https://vecta.io/nano"><defs><clipPath id="A"><path d="M0 0h273.452v174.5H0z" fill="none"/></clipPath></defs><g clip-path="url(#A)" fill="#fff"><path d="M135.974 86.544l.045-.057L127 79.37l.639-1.042.04.025 1.521-2.565.053-.093.951-1.54-.042-.077a49.812 49.812 0 0 0 4.248-10.623 50.483 50.483 0 0 0 1.805-13.246A49.92 49.92 0 0 0 121.5 14.723l-.026-.025A49.909 49.909 0 0 0 86 0H28.4A28.541 28.541 0 0 0 0 28.389v117.722A28.54 28.54 0 0 0 28.4 174.5h74.521a50.429 50.429 0 0 0 50.2-50.21 50.5 50.5 0 0 0-17.147-37.746m-43.125 6.91a15.767 15.767 0 0 1-17.421 7.01c-5.967-1.554-9.528-6.492-9.528-13.21 0-3.4.944-9.544 7.257-12.4a15.232 15.232 0 0 1 6.222-1.3 15.93 15.93 0 0 1 9.8 3.317l1.043.822.04-.007 8.69 6.855-6.032 8.8zm20.86-35.639a28.635 28.635 0 0 1-2.881 6.817l-.819 1.339-10.157-8.011-.123.155a37.454 37.454 0 0 0-35.4-2.846c-12.3 5.568-19.935 17.825-19.935 31.985 0 16.348 10.311 30 25.652 33.978a37.362 37.362 0 0 0 41.01-16.37l4.829-6.958 3.332 2.628v.07l1.21.925a28.8 28.8 0 0 1 11.191 22.763 28.861 28.861 0 0 1-28.694 28.7H28.4a6.978 6.978 0 0 1-6.891-6.881V28.389a6.979 6.979 0 0 1 6.891-6.882H86a28.547 28.547 0 0 1 20.28 8.354l.049.049a28.559 28.559 0 0 1 8.374 20.3 29.085 29.085 0 0 1-1 7.606M212.34 174.5c-19.783 0-36.086-7.016-47.147-20.289-2.844-3.453-4.008-6.269-4.008-9.707a10.59 10.59 0 0 1 10.828-10.58c2.65 0 5.863.5 10.478 6.5a37.64 37.64 0 0 0 30.6 14.906 36.2 36.2 0 0 0 25.2-9.634c7.043-6.715 10.766-16.08 10.766-27.083 0-13.458-4.631-23.634-13.765-30.246-9.1-6.584-20.615-7.965-28.678-7.965a100.36 100.36 0 0 0-21.866 2.819l-1.208.282a22.57 22.57 0 0 1-5.553.881 8.87 8.87 0 0 1-6.117-2.369c-1.715-1.75-2.546-4.491-2.472-8.147l1.742-59.966c.108-4.964 1.241-8.436 3.465-10.635S180.298 0 185.207 0h70.945c10.672 0 11.824 7.225 11.824 10.331s-1.152 10.33-11.824 10.33h-62.218l-2.073 45.324 4.122-1.124c5.129-1.4 13.864-2.131 19.842-2.131 16.714 0 30.995 4.759 41.3 13.763 10.683 9.336 16.33 22.783 16.33 38.886 0 17.708-6.2 32.742-17.938 43.476-11.03 10.089-26.363 15.645-43.174 15.645"/></g></svg>