<svg xmlns="http://www.w3.org/2000/svg" width="47.417" height="47.417" opacity=".9" fill="#fff" xmlns:v="https://vecta.io/nano"><path d="M23.708 4.272l9.58.138a13.12 13.12 0 0 1 4.4.816 7.35 7.35 0 0 1 2.726 1.773 7.34 7.34 0 0 1 1.774 2.726 13.12 13.12 0 0 1 .816 4.4l.138 9.58-.138 9.58a13.12 13.12 0 0 1-.816 4.4 7.34 7.34 0 0 1-1.774 2.726 7.34 7.34 0 0 1-2.726 1.774c-1.409.522-2.897.798-4.4.816l-9.58.138c-6.331 0-7.081-.024-9.58-.138-1.503-.018-2.991-.294-4.4-.816a7.34 7.34 0 0 1-2.726-1.774 7.35 7.35 0 0 1-1.773-2.726 13.12 13.12 0 0 1-.816-4.4l-.138-9.58.138-9.58a13.12 13.12 0 0 1 .816-4.4 7.34 7.34 0 0 1 1.773-2.726 7.34 7.34 0 0 1 2.726-1.774 13.12 13.12 0 0 1 4.4-.816l9.58-.138m0-4.272l-9.775.143a17.4 17.4 0 0 0-5.755 1.1 11.62 11.62 0 0 0-4.2 2.735c-1.206 1.185-2.139 2.618-2.734 4.2a17.4 17.4 0 0 0-1.1 5.755l-.143 9.775.143 9.775a17.4 17.4 0 0 0 1.1 5.755c.595 1.582 1.528 3.015 2.734 4.2 1.185 1.206 2.618 2.139 4.2 2.734a17.4 17.4 0 0 0 5.755 1.1l9.775.143 9.775-.143a17.4 17.4 0 0 0 5.755-1.1 11.62 11.62 0 0 0 4.2-2.734 11.62 11.62 0 0 0 2.735-4.2 17.4 17.4 0 0 0 1.1-5.755l.143-9.775-.143-9.775a17.41 17.41 0 0 0-1.1-5.755 11.62 11.62 0 0 0-2.735-4.2 11.62 11.62 0 0 0-4.2-2.735 17.4 17.4 0 0 0-5.755-1.1l-9.775-.143zm0 11.535c-6.724 0-12.174 5.45-12.174 12.174a12.18 12.18 0 0 0 12.174 12.175c3.229 0 6.326-1.283 8.609-3.566s3.566-5.38 3.566-8.609-1.283-6.326-3.566-8.609a12.17 12.17 0 0 0-8.609-3.565zm0 20.077a7.9 7.9 0 0 1 0-15.8 7.9 7.9 0 0 1 0 15.8z"/><circle cx="36.364" cy="11.053" r="2.845"/></svg>