<svg xmlns="http://www.w3.org/2000/svg" xmlns:xlink="http://www.w3.org/1999/xlink" width="168.5" height="96.041" viewBox="0 0 168.5 96.041"><defs><style>.a{fill:none;}.b{clip-path:url(#a);}.c{fill:#fff;}</style><clipPath id="a"><rect class="a" width="168.5" height="96.041"/></clipPath></defs><g transform="translate(0 13)"><g class="b" transform="translate(0 -13)"><path class="c" d="M162.232,21.016a9.88,9.88,0,0,0-12.808,5.58C133.245,67.76,119,75.333,111.952,76.183c-5.645.677-10.728-2.342-14.3-5.389l5.238-5.739.065-.072c7.434-8.307,14.692-17.589,14.692-31.581a33.394,33.394,0,1,0-66.789,0c0,13.991,7.257,23.272,14.69,31.578l5.3,5.8c-.371.315-.759.631-1.163.942-4.494,3.466-8.912,4.964-13.133,4.456C49.5,75.333,35.255,67.76,19.075,26.6A9.879,9.879,0,1,0,.687,33.824C8.614,53.991,17.3,69.406,26.507,79.641c8.639,9.605,18.015,15.049,27.866,16.18a33.591,33.591,0,0,0,3.841.221c11.048,0,19.975-5.5,25.934-10.678l.1.112.1-.112c5.959,5.18,14.885,10.678,25.935,10.678a33.655,33.655,0,0,0,3.84-.221c9.851-1.131,19.227-6.574,27.866-16.18,9.206-10.235,17.893-25.65,25.82-45.817a9.879,9.879,0,0,0-5.58-12.808M84.25,19.757A13.657,13.657,0,0,1,97.887,33.4c0,5.152-1.441,9.217-9.626,18.37L84.25,56.167l-4.014-4.4C72.054,42.62,70.613,38.554,70.613,33.4A13.657,13.657,0,0,1,84.25,19.757" transform="translate(0)"/></g></g></svg>