<svg id="Group_1772" data-name="Group 1772" xmlns="http://www.w3.org/2000/svg" xmlns:xlink="http://www.w3.org/1999/xlink" width="52.847" height="45" viewBox="0 0 52.847 45">
  <defs>
    <clipPath id="clip-path">
      <rect id="Rectangle_1721" data-name="Rectangle 1721" width="52.847" height="45" fill="none"/>
    </clipPath>
  </defs>
  <g id="Group_1771" data-name="Group 1771" transform="translate(0 0)" clip-path="url(#clip-path)">
    <path id="Path_4284" data-name="Path 4284" d="M72.168,60.3a.829.829,0,0,0,.836-.82c0-.019,0-.037,0-.056,0-.62-.375-.917-1.143-.917H70.618v3.25h.467V60.343h.574l.012.018.89,1.4h.5L72.1,60.311Zm-.54-.326h-.541v-1.1h.686c.355,0,.759.058.759.522,0,.534-.409.577-.906.577" transform="translate(-21.914 -18.157)" fill="#fff"/>
    <path id="Path_4285" data-name="Path 4285" d="M38.074,38.073H31.452V27.7c0-2.473-.043-5.655-3.443-5.655-3.448,0-3.976,2.694-3.976,5.475V38.073H17.413V16.75h6.356v2.914h.089a6.966,6.966,0,0,1,6.271-3.444c6.711,0,7.949,4.414,7.949,10.156ZM9.942,13.836a3.842,3.842,0,1,1,3.842-3.843,3.842,3.842,0,0,1-3.842,3.843m3.31,24.238H6.624V16.75h6.628ZM41.375,0H3.3A3.261,3.261,0,0,0,0,3.223V41.459a3.263,3.263,0,0,0,3.3,3.224H41.375a3.27,3.27,0,0,0,3.31-3.224V3.221A3.268,3.268,0,0,0,41.375,0" transform="translate(0 0)" fill="#fff"/>
    <path id="Path_4286" data-name="Path 4286" d="M70.806,56.412a3.047,3.047,0,1,0,.059,0h-.059m0,5.745a2.672,2.672,0,1,1,2.627-2.716v.045a2.615,2.615,0,0,1-2.557,2.67h-.069" transform="translate(-21.035 -17.506)" fill="#fff"/>
  </g>
</svg>
