<svg id="Group_1776" data-name="Group 1776" xmlns="http://www.w3.org/2000/svg" xmlns:xlink="http://www.w3.org/1999/xlink" width="45" height="45" viewBox="0 0 45 45">
  <defs>
    <clipPath id="clip-path">
      <rect id="Rectangle_1723" data-name="Rectangle 1723" width="45" height="45" fill="none"/>
    </clipPath>
  </defs>
  <g id="Group_1775" data-name="Group 1775" clip-path="url(#clip-path)">
    <path id="Path_4288" data-name="Path 4288" d="M22.5,0A22.5,22.5,0,1,0,45,22.5,22.5,22.5,0,0,0,22.5,0M32.929,15.3c-.339,3.558-1.8,12.192-2.549,16.176-.315,1.686-.936,2.251-1.538,2.307-1.307.12-2.3-.863-3.564-1.693-1.98-1.3-3.1-2.106-5.021-3.373-2.221-1.464-.781-2.268.485-3.583.331-.344,6.088-5.581,6.2-6.056a.46.46,0,0,0-.1-.4.518.518,0,0,0-.466-.045q-.3.068-9.491,6.273a4.272,4.272,0,0,1-2.44.9,16.057,16.057,0,0,1-3.5-.828c-1.409-.458-2.529-.7-2.431-1.478q.076-.608,1.674-1.243,9.839-4.287,13.122-5.652c6.249-2.6,7.547-3.05,8.393-3.065a1.48,1.48,0,0,1,.872.262.948.948,0,0,1,.32.609,3.969,3.969,0,0,1,.038.886" fill="#fff"/>
  </g>
</svg>
