<svg id="Group_1774" data-name="Group 1774" xmlns="http://www.w3.org/2000/svg" xmlns:xlink="http://www.w3.org/1999/xlink" width="45" height="45" viewBox="0 0 45 45">
  <defs>
    <clipPath id="clip-path">
      <rect id="Rectangle_1722" data-name="Rectangle 1722" width="45" height="45" fill="none"/>
    </clipPath>
  </defs>
  <g id="Group_1773" data-name="Group 1773" clip-path="url(#clip-path)">
    <path id="Path_4287" data-name="Path 4287" d="M39.375,45H5.625A5.625,5.625,0,0,1,0,39.375V5.625A5.625,5.625,0,0,1,5.625,0h33.75A5.625,5.625,0,0,1,45,5.625v33.75A5.625,5.625,0,0,1,39.375,45M17.283,33.929C27.9,33.929,33.7,25.136,33.7,17.511c0-.25-.005-.5-.017-.746a11.741,11.741,0,0,0,2.879-2.988,11.517,11.517,0,0,1-3.314.908,5.79,5.79,0,0,0,2.537-3.192,11.565,11.565,0,0,1-3.664,1.4,5.775,5.775,0,0,0-9.833,5.262A16.382,16.382,0,0,1,10.4,12.128a5.775,5.775,0,0,0,1.786,7.7,5.726,5.726,0,0,1-2.613-.722c0,.024,0,.048,0,.074A5.773,5.773,0,0,0,14.2,24.84a5.762,5.762,0,0,1-2.606.1,5.777,5.777,0,0,0,5.391,4.008,11.579,11.579,0,0,1-7.167,2.47,11.737,11.737,0,0,1-1.376-.08,16.336,16.336,0,0,0,8.845,2.592" fill="#fff"/>
  </g>
</svg>
