<svg xmlns="http://www.w3.org/2000/svg" width="63.532" height="44.761" xmlns:v="https://vecta.io/nano"><path d="M62.2 6.99a7.98 7.98 0 0 0-5.617-5.653C51.633 0 31.766 0 31.766 0S11.899 0 6.945 1.336a7.98 7.98 0 0 0-5.617 5.653C0 11.976 0 22.381 0 22.381s0 10.4 1.328 15.391c.731 2.751 2.871 4.905 5.617 5.653 4.954 1.336 24.821 1.336 24.821 1.336s19.867 0 24.821-1.336a7.98 7.98 0 0 0 5.617-5.653c1.328-4.987 1.328-15.391 1.328-15.391s0-10.405-1.332-15.391zM25.264 31.827V12.934l16.6 9.447z" fill="#fff" opacity=".9"/></svg>