<svg xmlns="http://www.w3.org/2000/svg" xmlns:xlink="http://www.w3.org/1999/xlink" width="134.622" height="45" viewBox="0 0 134.622 45"><defs><style>.a{fill:none;}.b{clip-path:url(#a);}.c{fill:#b6b6b6;}.d{fill:#fff;}</style><clipPath id="a"><rect class="a" width="134.622" height="45"/></clipPath></defs><g class="b" transform="translate(0 0)"><path class="c" d="M123.9,0H10.726c-.412,0-.82,0-1.231,0C9.15,0,8.809.011,8.461.016a14.853,14.853,0,0,0-2.255.2A7.488,7.488,0,0,0,4.068.921,7.218,7.218,0,0,0,2.247,2.247,7.033,7.033,0,0,0,.921,4.07a7.485,7.485,0,0,0-.7,2.141,14.641,14.641,0,0,0-.2,2.252C.007,8.809.005,9.155,0,9.5v26c.005.349.007.687.016,1.037a14.632,14.632,0,0,0,.2,2.252,7.472,7.472,0,0,0,.7,2.143,6.983,6.983,0,0,0,1.326,1.816,7.077,7.077,0,0,0,1.821,1.327,7.5,7.5,0,0,0,2.138.709,14.952,14.952,0,0,0,2.255.2c.348.007.689.012,1.034.012.411,0,.819,0,1.231,0H123.9c.4,0,.815,0,1.219,0,.343,0,.695,0,1.037-.012a14.757,14.757,0,0,0,2.25-.2,7.609,7.609,0,0,0,2.146-.709,7.069,7.069,0,0,0,1.82-1.327,7.189,7.189,0,0,0,1.329-1.816,7.437,7.437,0,0,0,.7-2.143,15.127,15.127,0,0,0,.209-2.252c0-.35,0-.688,0-1.037.009-.409.009-.815.009-1.231V10.728c0-.412,0-.82-.009-1.228,0-.345,0-.692,0-1.036a15.137,15.137,0,0,0-.209-2.252,7.45,7.45,0,0,0-.7-2.141A7.273,7.273,0,0,0,130.555.921a7.6,7.6,0,0,0-2.146-.706,14.661,14.661,0,0,0-2.25-.2C125.815.011,125.464,0,125.121,0c-.4,0-.815,0-1.219,0"/><path d="M9.828,44.343c-.343,0-.677,0-1.017-.012a14.248,14.248,0,0,1-2.1-.183,6.632,6.632,0,0,1-1.865-.616,6.055,6.055,0,0,1-1.57-1.144,5.974,5.974,0,0,1-1.148-1.571,6.435,6.435,0,0,1-.611-1.864,14.1,14.1,0,0,1-.188-2.11c-.007-.237-.016-1.027-.016-1.027V9.828s.009-.778.016-1.006a14,14,0,0,1,.187-2.106,6.471,6.471,0,0,1,.611-1.871A6.038,6.038,0,0,1,3.266,3.273,6.232,6.232,0,0,1,4.843,2.123,6.525,6.525,0,0,1,6.7,1.511a14.172,14.172,0,0,1,2.11-.185l1.016-.014H125.443l1.027.015a13.971,13.971,0,0,1,2.091.182,6.666,6.666,0,0,1,1.879.616,6.289,6.289,0,0,1,2.717,2.723,6.468,6.468,0,0,1,.6,1.855,14.523,14.523,0,0,1,.2,2.123c0,.319,0,.661,0,1,.009.422.009.824.009,1.229V34.6c0,.409,0,.808-.009,1.21,0,.365,0,.7,0,1.046a14.3,14.3,0,0,1-.193,2.085,6.48,6.48,0,0,1-.607,1.879,6.184,6.184,0,0,1-1.143,1.558,6.062,6.062,0,0,1-1.575,1.15,6.591,6.591,0,0,1-1.876.619,14.086,14.086,0,0,1-2.1.183c-.33.008-.675.012-1.009.012l-1.219,0Z" transform="translate(-0.328 -0.328)"/><path class="d" d="M31.6,28.078a5.566,5.566,0,0,1,2.651-4.671,5.7,5.7,0,0,0-4.49-2.428c-1.889-.2-3.721,1.13-4.683,1.13-.982,0-2.464-1.11-4.06-1.078A5.98,5.98,0,0,0,15.991,24.1c-2.176,3.767-.553,9.3,1.532,12.348,1.042,1.491,2.26,3.157,3.854,3.1,1.561-.065,2.144-1,4.027-1,1.867,0,2.413,1,4.04.958,1.675-.027,2.73-1.5,3.737-3a12.354,12.354,0,0,0,1.708-3.479A5.38,5.38,0,0,1,31.6,28.078" transform="translate(-3.739 -5.24)"/><path class="d" d="M31.833,17.007a5.483,5.483,0,0,0,1.254-3.927,5.581,5.581,0,0,0-3.609,1.867,5.219,5.219,0,0,0-1.286,3.782,4.609,4.609,0,0,0,3.641-1.721" transform="translate(-7.041 -3.27)"/><path class="d" d="M60.5,37.311H55.176L53.9,41.087H51.641l5.044-13.969h2.343l5.044,13.969H61.778Zm-4.773-1.742h4.221l-2.08-6.128h-.059Z" transform="translate(-12.91 -6.779)"/><path class="d" d="M79.541,37.222c0,3.165-1.694,5.2-4.25,5.2a3.455,3.455,0,0,1-3.2-1.782h-.049v5.044h-2.09V32.129h2.023v1.694h.038a3.614,3.614,0,0,1,3.243-1.8c2.586,0,4.289,2.044,4.289,5.2m-2.149,0c0-2.062-1.066-3.418-2.692-3.418-1.6,0-2.671,1.384-2.671,3.418,0,2.052,1.074,3.426,2.671,3.426,1.626,0,2.692-1.346,2.692-3.426" transform="translate(-17.487 -8.006)"/><path class="d" d="M94.488,37.222c0,3.165-1.694,5.2-4.25,5.2a3.455,3.455,0,0,1-3.2-1.782h-.049v5.044h-2.09V32.129h2.023v1.694h.038a3.614,3.614,0,0,1,3.243-1.8c2.586,0,4.289,2.044,4.289,5.2m-2.149,0c0-2.062-1.066-3.418-2.692-3.418-1.6,0-2.672,1.384-2.672,3.418,0,2.052,1.074,3.426,2.672,3.426,1.626,0,2.692-1.346,2.692-3.426" transform="translate(-21.224 -8.006)"/><path class="d" d="M106.853,37.117c.155,1.385,1.5,2.295,3.34,2.295,1.762,0,3.03-.91,3.03-2.159,0-1.084-.764-1.734-2.575-2.179l-1.81-.437c-2.565-.619-3.756-1.819-3.756-3.766,0-2.411,2.1-4.066,5.083-4.066,2.953,0,4.976,1.656,5.044,4.066H113.1c-.126-1.394-1.279-2.236-2.963-2.236s-2.837.851-2.837,2.09c0,.988.736,1.569,2.536,2.014l1.539.377c2.867.678,4.058,1.829,4.058,3.873,0,2.613-2.082,4.25-5.393,4.25-3.1,0-5.19-1.6-5.326-4.125Z" transform="translate(-26.178 -6.702)"/><path class="d" d="M123.826,28.95v2.411h1.936v1.655h-1.936v5.615c0,.872.388,1.279,1.239,1.279a6.717,6.717,0,0,0,.688-.048v1.645a5.77,5.77,0,0,1-1.161.1c-2.063,0-2.867-.775-2.867-2.75V33.016h-1.48V31.361h1.48V28.95Z" transform="translate(-30.061 -7.237)"/><path class="d" d="M129.1,37.216c0-3.2,1.888-5.219,4.83-5.219s4.832,2.014,4.832,5.219-1.868,5.218-4.832,5.218-4.83-2.005-4.83-5.218m7.532,0c0-2.2-1.008-3.5-2.7-3.5s-2.7,1.307-2.7,3.5c0,2.207,1.007,3.494,2.7,3.494s2.7-1.287,2.7-3.494" transform="translate(-32.275 -7.999)"/><path class="d" d="M144.279,32.129h1.993v1.734h.049a2.429,2.429,0,0,1,2.45-1.84,3.226,3.226,0,0,1,.716.078v1.955a2.938,2.938,0,0,0-.939-.126,2.106,2.106,0,0,0-2.179,2.343v6.041h-2.09Z" transform="translate(-36.07 -8.006)"/><path class="d" d="M161.014,39.315c-.281,1.849-2.082,3.118-4.385,3.118-2.962,0-4.8-1.985-4.8-5.17S153.675,32,156.54,32c2.818,0,4.59,1.936,4.59,5.024v.716h-7.194v.127a2.653,2.653,0,0,0,2.741,2.884,2.3,2.3,0,0,0,2.351-1.432Zm-7.066-3.04h5.091a2.449,2.449,0,0,0-2.5-2.585,2.578,2.578,0,0,0-2.593,2.585" transform="translate(-37.957 -7.999)"/><path class="d" d="M55.931,13.1c1.991,0,3.158,1.224,3.158,3.336,0,2.144-1.159,3.377-3.158,3.377H53.506V13.1ZM54.549,18.86h1.265a2.11,2.11,0,0,0,2.214-2.414,2.116,2.116,0,0,0-2.214-2.4H54.549Z" transform="translate(-13.377 -3.274)"/><path class="d" d="M62.521,17.791a2.4,2.4,0,1,1,4.778,0,2.4,2.4,0,1,1-4.778,0m3.75,0c0-1.1-.494-1.74-1.359-1.74s-1.358.642-1.358,1.74.489,1.744,1.358,1.744,1.359-.641,1.359-1.744" transform="translate(-15.63 -3.791)"/><path class="d" d="M75.483,20.358H74.446L73.4,16.627H73.32l-1.042,3.731H71.25l-1.4-5.066h1.015l.907,3.865h.074l1.042-3.865h.958l1.042,3.865h.079l.9-3.865h1Z" transform="translate(-17.463 -3.823)"/><path class="d" d="M80.78,15.26h.962v.8h.075a1.516,1.516,0,0,1,1.511-.9,1.648,1.648,0,0,1,1.754,1.884v3.279h-1V17.3c0-.815-.353-1.22-1.093-1.22a1.162,1.162,0,0,0-1.209,1.284v2.963h-1Z" transform="translate(-20.195 -3.791)"/><rect class="d" width="1" height="7.043" transform="translate(66.481 9.491)"/><path class="d" d="M91.826,17.791a2.4,2.4,0,1,1,4.779,0,2.4,2.4,0,1,1-4.779,0m3.75,0c0-1.1-.494-1.74-1.359-1.74s-1.358.642-1.358,1.74.489,1.744,1.358,1.744,1.359-.641,1.359-1.744" transform="translate(-22.957 -3.791)"/><path class="d" d="M99.6,18.893c0-.912.679-1.437,1.884-1.512l1.373-.079v-.437c0-.536-.354-.838-1.037-.838-.558,0-.945.2-1.056.563H99.8c.1-.87.92-1.428,2.07-1.428,1.27,0,1.986.632,1.986,1.7v3.46h-.962v-.712h-.079a1.7,1.7,0,0,1-1.522.8A1.53,1.53,0,0,1,99.6,18.893m3.257-.433v-.423l-1.237.079c-.7.047-1.015.284-1.015.731s.4.721.94.721a1.194,1.194,0,0,0,1.312-1.108" transform="translate(-24.9 -3.791)"/><path class="d" d="M107.023,17.164c0-1.6.823-2.614,2.1-2.614a1.669,1.669,0,0,1,1.553.889h.075V12.656h1V19.7H110.8v-.8h-.079a1.759,1.759,0,0,1-1.591.884c-1.289,0-2.1-1.014-2.1-2.618m1.033,0c0,1.075.506,1.721,1.354,1.721s1.363-.656,1.363-1.716-.526-1.721-1.363-1.721-1.354.651-1.354,1.717" transform="translate(-26.756 -3.164)"/><path class="d" d="M118.845,17.791a2.4,2.4,0,1,1,4.778,0,2.4,2.4,0,1,1-4.778,0m3.75,0c0-1.1-.494-1.74-1.359-1.74s-1.358.642-1.358,1.74.489,1.744,1.358,1.744,1.359-.641,1.359-1.744" transform="translate(-29.711 -3.791)"/><path class="d" d="M127,15.26h.962v.8h.075a1.516,1.516,0,0,1,1.511-.9,1.647,1.647,0,0,1,1.754,1.884v3.279h-1V17.3c0-.815-.353-1.22-1.093-1.22A1.162,1.162,0,0,0,128,17.362v2.963h-1Z" transform="translate(-31.751 -3.791)"/><path class="d" d="M139.672,13.61v1.284h1.1v.842h-1.1v2.606c0,.53.219.763.716.763a3.412,3.412,0,0,0,.382-.023v.832a3.251,3.251,0,0,1-.544.052c-1.112,0-1.554-.391-1.554-1.368V15.736h-.8v-.842h.8V13.61Z" transform="translate(-34.467 -3.403)"/><path class="d" d="M143.557,12.655h.991v2.792h.079a1.559,1.559,0,0,1,1.544-.907,1.669,1.669,0,0,1,1.745,1.889V19.7h-1V16.674c0-.809-.377-1.219-1.084-1.219a1.183,1.183,0,0,0-1.276,1.284V19.7h-1Z" transform="translate(-35.889 -3.164)"/><path class="d" d="M155.63,18.958a2.055,2.055,0,0,1-2.195,1.466,2.3,2.3,0,0,1-2.34-2.615c0-1.619.907-2.647,2.335-2.647,1.41,0,2.261.963,2.261,2.554v.349h-3.577v.056a1.339,1.339,0,0,0,1.349,1.451,1.214,1.214,0,0,0,1.2-.614Zm-3.516-1.633h2.558a1.222,1.222,0,0,0-1.247-1.312,1.3,1.3,0,0,0-1.312,1.312" transform="translate(-37.774 -3.791)"/></g></svg>