<svg xmlns="http://www.w3.org/2000/svg" xmlns:xlink="http://www.w3.org/1999/xlink" width="151.531" height="45" viewBox="0 0 151.531 45"><defs><style>.a,.e{fill:none;}.b{clip-path:url(#a);}.c{fill:#a6a6a6;}.d{fill:#fff;}.e{stroke:#fff;stroke-miterlimit:10;stroke-width:0.3px;}.f{clip-path:url(#c);}.g{fill:url(#d);}.h{clip-path:url(#e);}.i{fill:url(#f);}.j{clip-path:url(#g);}.k{fill:url(#h);}.l{clip-path:url(#i);}.m{fill:url(#j);}.n{opacity:0.2;}.n,.p,.s{isolation:isolate;}.o{clip-path:url(#l);}.p{opacity:0.12;}.q{clip-path:url(#m);}.r{clip-path:url(#n);}.s{opacity:0.25;}.t{clip-path:url(#o);}</style><clipPath id="a"><rect class="a" width="151.531" height="45"/></clipPath><clipPath id="c"><path class="a" d="M15.479,11.28a2.246,2.246,0,0,0-.52,1.578V37.7a2.243,2.243,0,0,0,.52,1.577l.083.082L29.479,25.444v-.328L15.562,11.2Z" transform="translate(-14.959 -11.198)"/></clipPath><linearGradient id="d" x1="-0.112" y1="1.24" x2="-0.087" y2="1.24" gradientUnits="objectBoundingBox"><stop offset="0" stop-color="#00a0ff"/><stop offset="0.007" stop-color="#00a1ff"/><stop offset="0.26" stop-color="#00beff"/><stop offset="0.512" stop-color="#00d2ff"/><stop offset="0.76" stop-color="#00dfff"/><stop offset="1" stop-color="#00e3ff"/></linearGradient><clipPath id="e"><path class="a" d="M34.348,28.227v.328l4.638,4.64.106-.059,5.5-3.123c1.57-.893,1.57-2.352,0-3.243l-5.5-3.123-.106-.06Z" transform="translate(-34.348 -23.586)"/></clipPath><linearGradient id="f" x1="-2.178" y1="2.838" x2="-2.115" y2="2.838" gradientUnits="objectBoundingBox"><stop offset="0" stop-color="#ffe000"/><stop offset="0.409" stop-color="#ffbd00"/><stop offset="0.775" stop-color="orange"/><stop offset="1" stop-color="#ff9c00"/></linearGradient><clipPath id="g"><path class="a" d="M15.653,44a1.826,1.826,0,0,0,2.334.07L34.4,34.746,29.653,30Z" transform="translate(-15.653 -30.001)"/></clipPath><linearGradient id="h" x1="-0.394" y1="1.144" x2="-0.362" y2="1.144" gradientUnits="objectBoundingBox"><stop offset="0" stop-color="#ff3a44"/><stop offset="1" stop-color="#c31162"/></linearGradient><clipPath id="i"><path class="a" d="M15.653,11.157l14,14L34.4,20.412l-16.41-9.323a2.576,2.576,0,0,0-1.259-.377,1.438,1.438,0,0,0-1.075.446" transform="translate(-15.653 -10.711)"/></clipPath><linearGradient id="j" x1="-0.399" y1="1.768" x2="-0.367" y2="1.768" gradientUnits="objectBoundingBox"><stop offset="0" stop-color="#32a071"/><stop offset="0.068" stop-color="#2da771"/><stop offset="0.476" stop-color="#15cf74"/><stop offset="0.801" stop-color="#06e775"/><stop offset="1" stop-color="#00f076"/></linearGradient><clipPath id="l"><rect class="a" width="18.744" height="9.806"/></clipPath><clipPath id="m"><rect class="a" width="0.604" height="1.742"/></clipPath><clipPath id="n"><rect class="a" width="6.778" height="4.744"/></clipPath><clipPath id="o"><rect class="a" width="25.937" height="14.446"/></clipPath></defs><g transform="translate(0.417 0.055)"><g class="b" transform="translate(-0.417 -0.055)"><g transform="translate(0)"><g class="b"><path d="M146.027,44.932H5.616A5.633,5.633,0,0,1,0,39.315V5.616A5.633,5.633,0,0,1,5.616,0H146.027a5.633,5.633,0,0,1,5.616,5.616v33.7a5.633,5.633,0,0,1-5.616,5.616" transform="translate(-0.372 0.195)"/><path class="c" d="M146.027.9a4.723,4.723,0,0,1,4.718,4.717v33.7a4.723,4.723,0,0,1-4.718,4.718H5.616A4.723,4.723,0,0,1,.9,39.315V5.616A4.723,4.723,0,0,1,5.616.9H146.027m0-.9H5.616A5.633,5.633,0,0,0,0,5.616v33.7a5.633,5.633,0,0,0,5.616,5.616H146.027a5.633,5.633,0,0,0,5.616-5.616V5.616A5.633,5.633,0,0,0,146.027,0" transform="translate(-0.372 0.195)"/><path class="d" d="M68.842,14.093A3.039,3.039,0,0,1,68,16.342a3.265,3.265,0,0,1-2.476,1,3.472,3.472,0,0,1-3.5-3.52,3.472,3.472,0,0,1,3.5-3.52,3.478,3.478,0,0,1,1.383.282,2.783,2.783,0,0,1,1.054.753l-.592.592a2.275,2.275,0,0,0-1.845-.8,2.605,2.605,0,0,0-2.617,2.691,2.65,2.65,0,0,0,4.5,1.94,2.118,2.118,0,0,0,.565-1.365H65.529v-.81h3.266a2.887,2.887,0,0,1,.047.508" transform="translate(-15.95 -2.391)"/><path class="e" d="M68.842,14.093A3.039,3.039,0,0,1,68,16.342a3.265,3.265,0,0,1-2.476,1,3.472,3.472,0,0,1-3.5-3.52,3.472,3.472,0,0,1,3.5-3.52,3.478,3.478,0,0,1,1.383.282,2.783,2.783,0,0,1,1.054.753l-.592.592a2.275,2.275,0,0,0-1.845-.8,2.605,2.605,0,0,0-2.617,2.691,2.65,2.65,0,0,0,4.5,1.94,2.118,2.118,0,0,0,.565-1.365H65.529v-.81h3.266A2.887,2.887,0,0,1,68.842,14.093Z" transform="translate(-15.95 -2.391)"/><path class="d" d="M76.722,11.328h-3.07v2.137H76.42v.81H73.652v2.137h3.07v.828H72.787V10.5h3.935Z" transform="translate(-18.652 -2.442)"/><path class="e" d="M76.722,11.328h-3.07v2.137H76.42v.81H73.652v2.137h3.07v.828H72.787V10.5h3.935Z" transform="translate(-18.652 -2.442)"/><path class="d" d="M82,17.24h-.866V11.328H79.247V10.5h4.632v.828H82Z" transform="translate(-20.274 -2.442)"/><path class="e" d="M82,17.24h-.866V11.328H79.247V10.5h4.632v.828H82Z" transform="translate(-20.274 -2.442)"/><rect class="d" width="0.866" height="6.74" transform="translate(66.955 8.058)"/><rect class="e" width="0.866" height="6.74" transform="translate(66.955 8.058)"/><path class="d" d="M95.27,17.24H94.4V11.328H92.521V10.5h4.632v.828H95.27Z" transform="translate(-23.608 -2.442)"/><path class="e" d="M95.27,17.24H94.4V11.328H92.521V10.5h4.632v.828H95.27Z" transform="translate(-23.608 -2.442)"/><path class="d" d="M108.423,16.318a3.5,3.5,0,0,1-4.942,0,3.446,3.446,0,0,1-.993-2.5,3.448,3.448,0,0,1,.993-2.5,3.487,3.487,0,0,1,4.937,0,3.447,3.447,0,0,1,1,2.5,3.446,3.446,0,0,1-.993,2.5m-4.3-.565a2.591,2.591,0,0,0,3.662,0,2.634,2.634,0,0,0,.75-1.934,2.637,2.637,0,0,0-.75-1.935,2.593,2.593,0,0,0-3.662,0,2.642,2.642,0,0,0-.748,1.935,2.639,2.639,0,0,0,.748,1.934" transform="translate(-26.111 -2.391)"/><path class="e" d="M108.423,16.318a3.5,3.5,0,0,1-4.942,0,3.446,3.446,0,0,1-.993-2.5,3.448,3.448,0,0,1,.993-2.5,3.487,3.487,0,0,1,4.937,0,3.447,3.447,0,0,1,1,2.5A3.446,3.446,0,0,1,108.423,16.318Zm-4.3-.565a2.591,2.591,0,0,0,3.662,0,2.634,2.634,0,0,0,.75-1.934,2.637,2.637,0,0,0-.75-1.935,2.593,2.593,0,0,0-3.662,0,2.642,2.642,0,0,0-.748,1.935A2.639,2.639,0,0,0,104.121,15.754Z" transform="translate(-26.111 -2.391)"/><path class="d" d="M113.363,17.24V10.5h1.054l3.276,5.243h.037l-.037-1.3V10.5h.866v6.74h-.9l-3.427-5.5h-.037l.037,1.3v4.2Z" transform="translate(-28.842 -2.442)"/><path class="e" d="M113.363,17.24V10.5h1.054l3.276,5.243h.037l-.037-1.3V10.5h.866v6.74h-.9l-3.427-5.5h-.037l.037,1.3v4.2Z" transform="translate(-28.842 -2.442)"/><path class="d" d="M92,30.855a4.778,4.778,0,1,0,4.8,4.778A4.71,4.71,0,0,0,92,30.855m0,7.674a2.9,2.9,0,1,1,2.7-2.9,2.765,2.765,0,0,1-2.7,2.9M81.535,30.855a4.778,4.778,0,1,0,4.8,4.778,4.71,4.71,0,0,0-4.8-4.778m0,7.674a2.9,2.9,0,1,1,2.7-2.9,2.764,2.764,0,0,1-2.7,2.9M69.09,32.321v2.027h4.85a4.231,4.231,0,0,1-1.1,2.551,4.962,4.962,0,0,1-3.746,1.484,5.394,5.394,0,0,1,0-10.787,5.171,5.171,0,0,1,3.656,1.448l1.429-1.43a7.067,7.067,0,0,0-5.085-2.045,7.42,7.42,0,1,0,0,14.839,6.785,6.785,0,0,0,5.176-2.082,6.7,6.7,0,0,0,1.755-4.741,6.582,6.582,0,0,0-.109-1.266ZM119.984,33.9a4.441,4.441,0,0,0-4.09-3.04,4.54,4.54,0,0,0-4.505,4.778,4.675,4.675,0,0,0,4.741,4.778,4.752,4.752,0,0,0,3.981-2.117l-1.629-1.087a2.726,2.726,0,0,1-2.352,1.322,2.43,2.43,0,0,1-2.316-1.448l6.388-2.642Zm-6.514,1.593a2.62,2.62,0,0,1,2.5-2.787,1.848,1.848,0,0,1,1.773,1.014Zm-5.194,4.632h2.1V26.078h-2.1Zm-3.438-8.2h-.073a3.312,3.312,0,0,0-2.515-1.068,4.782,4.782,0,0,0,0,9.555,3.259,3.259,0,0,0,2.515-1.086h.073v.687c0,1.828-.977,2.805-2.551,2.805a2.643,2.643,0,0,1-2.407-1.7l-1.829.761a4.554,4.554,0,0,0,4.236,2.822c2.461,0,4.542-1.448,4.542-4.976V31.145h-1.99Zm-2.407,6.606a2.906,2.906,0,0,1,0-5.791,2.692,2.692,0,0,1,2.551,2.913,2.67,2.67,0,0,1-2.551,2.878m27.387-12.451H124.8V40.121h2.1V34.8h2.927a4.368,4.368,0,1,0,0-8.723m.054,6.768h-2.98V28.033h2.98a2.407,2.407,0,1,1,0,4.814m12.953-2.017a3.933,3.933,0,0,0-3.739,2.15l1.861.777a1.986,1.986,0,0,1,1.915-1.03,2.02,2.02,0,0,1,2.2,1.807v.144a4.646,4.646,0,0,0-2.187-.541c-2.005,0-4.047,1.1-4.047,3.161a3.244,3.244,0,0,0,3.487,3.089,2.957,2.957,0,0,0,2.673-1.373h.073V40.1h2.023V34.714c0-2.493-1.861-3.884-4.264-3.884m-.253,7.7c-.686,0-1.644-.343-1.644-1.193,0-1.083,1.193-1.5,2.223-1.5a3.738,3.738,0,0,1,1.916.47,2.541,2.541,0,0,1-2.494,2.222m11.888-7.389-2.4,6.088h-.072l-2.493-6.088h-2.259l3.74,8.509-2.131,4.734h2.185l5.763-13.243Zm-18.879,8.984h2.1V26.078h-2.1Z" transform="translate(-15.833 -6.226)"/></g></g><g transform="translate(10.83 8.581)"><g class="f"><rect class="g" width="30.18" height="30.18" transform="translate(-14.081 14.081) rotate(-45)"/></g></g><g transform="translate(25.35 17.858)"><g class="h"><rect class="i" width="11.81" height="9.609" transform="translate(0 0)"/></g></g><g transform="translate(11.35 22.662)"><g class="j"><rect class="k" width="23.589" height="23.589" transform="translate(-7.308 7.308) rotate(-45)"/></g></g><g transform="translate(11.35 8.216)"><g class="l"><rect class="m" width="23.469" height="23.469" transform="translate(-7.223 7.223) rotate(-45)"/></g></g><g transform="translate(0)"><g class="b"><g class="n" transform="translate(11.35 27.303)"><g class="o"><path d="M34.292,36.2l-16.3,9.264a1.871,1.871,0,0,1-2.251.012l-.084.084.083.081h0a1.87,1.87,0,0,0,2.251-.012L34.4,36.3Z" transform="translate(-15.653 -36.198)"/></g></g><g class="p" transform="translate(10.83 34.92)"><g class="q"><path d="M15.479,47.948a2.244,2.244,0,0,1-.52-1.577v.163a2.248,2.248,0,0,0,.52,1.579l.084-.084Z" transform="translate(-14.959 -46.37)"/></g></g><g class="p" transform="translate(29.989 22.663)"><g class="r"><path d="M46.144,31.459l-5.6,3.183.1.1,5.5-3.123A1.97,1.97,0,0,0,47.321,30a2.09,2.09,0,0,1-1.177,1.457" transform="translate(-40.543 -30.002)"/></g></g><g class="s" transform="translate(10.83 8.216)"><g class="t"><path class="d" d="M17.813,11.253,39.718,23.7A2.091,2.091,0,0,1,40.9,25.156a1.971,1.971,0,0,0-1.178-1.622l-21.9-12.445c-1.57-.893-2.855-.151-2.855,1.647V12.9c0-1.8,1.284-2.539,2.855-1.647" transform="translate(-14.959 -10.711)"/></g></g></g></g></g></g></svg>